<svg xmlns="http://www.w3.org/2000/svg" xmlns:xlink="http://www.w3.org/1999/xlink" width="500" zoomAndPan="magnify" viewBox="0 0 375 374.999991" height="500" preserveAspectRatio="xMidYMid meet" version="1.0"><defs><g/><clipPath id="8650694f3d"><path d="M 50 95 L 325 95 L 325 279.941406 L 50 279.941406 Z M 50 95 " clip-rule="nonzero"/></clipPath><clipPath id="9bf95970f3"><path d="M 100.273438 134.253906 L 145 134.253906 L 145 174 L 100.273438 174 Z M 100.273438 134.253906 " clip-rule="nonzero"/></clipPath><clipPath id="6a0a40663e"><path d="M 203 180 L 274.925781 180 L 274.925781 191 L 203 191 Z M 203 180 " clip-rule="nonzero"/></clipPath><clipPath id="8084e11409"><path d="M 100.273438 184 L 168 184 L 168 191 L 100.273438 191 Z M 100.273438 184 " clip-rule="nonzero"/></clipPath><clipPath id="f7e5858a4e"><path d="M 128 208 L 147.402344 208 L 147.402344 227.25 L 128 227.25 Z M 128 208 " clip-rule="nonzero"/></clipPath><clipPath id="541485495e"><path d="M 123.402344 197 L 135 197 L 135 209 L 123.402344 209 Z M 123.402344 197 " clip-rule="nonzero"/></clipPath><clipPath id="1f119f0827"><path d="M 136 187.5 L 142 187.5 L 142 192 L 136 192 Z M 136 187.5 " clip-rule="nonzero"/></clipPath><clipPath id="6aec6a3c0c"><path d="M 141 191 L 147.402344 191 L 147.402344 198 L 141 198 Z M 141 191 " clip-rule="nonzero"/></clipPath><clipPath id="c9e3d8b65f"><path d="M 131.289062 202.203125 L 147.039062 202.203125 L 147.039062 224.703125 L 131.289062 224.703125 Z M 131.289062 202.203125 " clip-rule="nonzero"/></clipPath><clipPath id="24386d9860"><path d="M 139.300781 157.960938 L 155.800781 157.960938 L 155.800781 174.460938 L 139.300781 174.460938 Z M 139.300781 157.960938 " clip-rule="nonzero"/></clipPath></defs><rect x="-37.5" width="450" fill="#ffffff" y="-37.499999" height="449.999989" fill-opacity="1"/><rect x="-37.5" width="450" fill="#ffffff" y="-37.499999" height="449.999989" fill-opacity="1"/><rect x="-37.5" width="450" fill="#3b3f5c" y="-37.499999" height="449.999989" fill-opacity="1"/><g clip-path="url(#8650694f3d)"><path fill="#000000" d="M 324.695312 151.976562 L 324.695312 146.738281 C 324.695312 136.859375 318.050781 127.046875 309.945312 124.925781 L 202.292969 96.8125 C 194.183594 94.691406 180.894531 94.691406 172.785156 96.8125 L 65.132812 124.925781 C 57.027344 127.046875 50.378906 136.859375 50.378906 146.738281 L 50.378906 151.976562 L 57.359375 151.976562 L 57.359375 150.917969 C 57.359375 141.632812 63.9375 132.417969 72.042969 130.363281 L 173.382812 105.035156 C 177.171875 104.105469 182.15625 103.578125 187.539062 103.578125 C 188.136719 103.578125 188.734375 104.304688 189.398438 105.566406 C 188.800781 105.566406 188.203125 105.566406 187.539062 105.566406 C 182.355469 105.566406 177.503906 106.097656 173.847656 106.957031 L 72.507812 132.285156 C 65.265625 134.074219 59.351562 142.429688 59.351562 150.917969 L 59.351562 151.976562 L 50.378906 151.976562 L 50.378906 227.894531 C 50.378906 237.773438 57.027344 247.585938 65.132812 249.707031 L 172.785156 277.820312 C 180.894531 279.941406 194.183594 279.941406 202.292969 277.820312 L 309.945312 249.707031 C 318.050781 247.585938 324.695312 237.773438 324.695312 227.894531 L 324.695312 151.976562 L 315.726562 151.976562 L 315.726562 150.917969 C 315.726562 142.496094 309.8125 134.140625 302.566406 132.285156 L 299.3125 131.488281 L 303.035156 130.363281 C 311.140625 132.351562 317.71875 141.566406 317.71875 150.917969 L 317.71875 151.976562 Z M 324.695312 151.976562 " fill-opacity="1" fill-rule="nonzero"/></g><path fill="#ffffff" d="M 315.726562 223.785156 C 315.726562 232.203125 309.8125 240.558594 302.566406 242.414062 L 201.160156 267.675781 C 197.574219 268.605469 192.722656 269.066406 187.472656 269.066406 C 182.222656 269.066406 177.4375 268.539062 173.78125 267.675781 L 72.507812 242.347656 C 65.265625 240.558594 59.351562 232.203125 59.351562 223.71875 L 59.351562 151.976562 L 57.359375 151.976562 L 57.359375 223.785156 C 57.359375 233.066406 63.9375 242.28125 72.042969 244.335938 L 173.449219 269.597656 C 177.238281 270.527344 182.222656 271.058594 187.605469 271.058594 C 192.988281 271.058594 197.972656 270.527344 201.757812 269.597656 L 303.035156 244.269531 C 311.140625 242.28125 317.71875 233.066406 317.71875 223.71875 L 317.71875 151.910156 L 315.726562 151.910156 Z M 315.726562 223.785156 " fill-opacity="1" fill-rule="nonzero"/><path fill="#ffffff" d="M 303.035156 130.296875 L 201.691406 105.035156 C 197.90625 104.105469 192.921875 103.578125 187.539062 103.578125 C 182.222656 103.578125 177.171875 104.105469 173.382812 105.035156 L 72.042969 130.296875 C 63.9375 132.285156 57.359375 141.5 57.359375 150.851562 L 57.359375 151.910156 L 59.351562 151.910156 L 59.351562 150.851562 C 59.351562 142.429688 65.265625 134.074219 72.507812 132.21875 L 173.914062 106.957031 C 177.503906 106.03125 182.355469 105.566406 187.605469 105.566406 C 192.789062 105.566406 197.640625 106.097656 201.292969 106.957031 L 302.699219 132.21875 C 309.945312 134.007812 315.859375 142.363281 315.859375 150.851562 L 315.859375 151.910156 L 317.851562 151.910156 L 317.851562 150.851562 C 317.71875 141.566406 311.140625 132.351562 303.035156 130.296875 Z M 303.035156 130.296875 " fill-opacity="1" fill-rule="nonzero"/><g clip-path="url(#9bf95970f3)"><path fill="#ffffff" d="M 139.6875 134.816406 C 141.226562 134.5625 142.765625 134.277344 144.328125 134.257812 C 139.828125 134.953125 135.378906 136.054688 131.128906 137.699219 C 127.210938 139.214844 123.507812 141.289062 120.164062 143.835938 C 117.054688 146.167969 114.265625 148.890625 111.308594 151.410156 C 107.980469 154.175781 104.34375 156.550781 100.585938 158.683594 C 92.523438 163.21875 83.902344 166.683594 75.128906 169.574219 C 71.347656 170.800781 67.535156 171.9375 63.679688 172.917969 C 63.109375 173.046875 62.550781 173.242188 61.964844 173.28125 C 64.164062 172.742188 66.324219 172.050781 68.496094 171.410156 C 77.6875 168.578125 86.730469 165.164062 95.273438 160.710938 C 101.296875 157.550781 107.078125 153.847656 112.144531 149.28125 C 113.351562 148.234375 114.441406 147.058594 115.664062 146.027344 C 122.433594 140.148438 130.90625 136.410156 139.6875 134.816406 Z M 139.6875 134.816406 " fill-opacity="1" fill-rule="nonzero"/></g><path fill="#ffffff" d="M 161.011719 135.53125 C 170.757812 134.890625 180.546875 135.648438 190.203125 137.015625 C 192.726562 137.210938 195.085938 138.183594 197.464844 138.972656 C 204.910156 141.535156 212.28125 144.347656 219.425781 147.671875 C 213.324219 147.125 207.195312 146.945312 201.070312 146.929688 C 193.75 146.894531 186.429688 147.109375 179.121094 147.472656 C 177.382812 147.566406 175.621094 147.625 173.902344 147.304688 C 172.535156 147.050781 171.1875 146.527344 170.117188 145.621094 C 167.207031 143.007812 164.445312 140.214844 161.300781 137.878906 C 160.757812 137.449219 160.082031 137.15625 159.691406 136.5625 C 159.542969 136.363281 159.515625 136.035156 159.746094 135.886719 C 160.109375 135.621094 160.578125 135.582031 161.011719 135.53125 Z M 161.011719 135.53125 " fill-opacity="1" fill-rule="nonzero"/><path fill="#ffffff" d="M 145.402344 137.308594 C 147.890625 137.050781 150.441406 137.171875 152.851562 137.886719 C 156.054688 138.800781 158.945312 140.652344 161.296875 142.996094 C 163.273438 144.949219 164.878906 147.25 166.222656 149.679688 C 156.589844 150.070312 146.957031 150.425781 137.324219 150.824219 C 136 147.9375 134.289062 145.191406 132.035156 142.941406 C 131.664062 142.546875 131.148438 142.238281 130.984375 141.695312 C 130.957031 141.265625 131.425781 141.082031 131.742188 140.925781 C 133.371094 140.238281 135.042969 139.671875 136.730469 139.148438 C 139.558594 138.289062 142.453125 137.597656 145.402344 137.308594 Z M 145.402344 137.308594 " fill-opacity="1" fill-rule="nonzero"/><path fill="#ffffff" d="M 126.550781 143.335938 C 127.183594 143.023438 127.804688 142.582031 128.535156 142.554688 C 129.09375 142.613281 129.527344 143.027344 129.949219 143.363281 C 131.183594 144.480469 132.148438 145.859375 133.058594 147.246094 C 133.566406 148.035156 134.050781 148.835938 134.5 149.664062 C 134.652344 149.964844 134.824219 150.332031 134.671875 150.667969 C 134.449219 151.007812 133.988281 150.96875 133.628906 150.980469 C 130.988281 150.945312 128.347656 150.992188 125.710938 151.070312 C 123.183594 151.183594 120.648438 151.320312 118.148438 151.726562 C 117.238281 151.886719 116.316406 152.058594 115.472656 152.441406 C 117.398438 149.148438 120.402344 146.617188 123.707031 144.785156 C 124.628906 144.253906 125.597656 143.808594 126.550781 143.335938 Z M 126.550781 143.335938 " fill-opacity="1" fill-rule="nonzero"/><path fill="#ffffff" d="M 187.828125 149.109375 C 193.601562 148.96875 199.371094 148.820312 205.140625 148.550781 C 211.363281 148.339844 217.601562 148.429688 223.804688 149.003906 C 229.171875 149.476562 234.527344 150.046875 239.867188 150.753906 C 242.683594 151.132812 245.496094 151.542969 248.28125 152.101562 C 252.410156 152.902344 256.585938 153.722656 260.457031 155.421875 C 261.621094 155.941406 262.761719 156.527344 263.839844 157.207031 C 261.640625 156.359375 259.386719 155.632812 257.074219 155.191406 C 256.089844 154.988281 255.085938 154.890625 254.101562 154.695312 C 252.984375 154.601562 251.863281 154.703125 250.742188 154.6875 C 247.261719 154.714844 243.773438 154.828125 240.320312 155.300781 C 239.871094 155.371094 239.347656 155.453125 239.066406 155.855469 C 238.820312 156.25 239.007812 156.734375 239.183594 157.117188 C 240.382812 159.230469 241.453125 161.414062 242.566406 163.570312 C 243.328125 165.09375 244.121094 166.601562 244.855469 168.132812 C 241.832031 163.308594 237.664062 159.222656 232.835938 156.222656 C 232.007812 155.714844 231.164062 155.230469 230.289062 154.816406 C 229.097656 154.265625 227.804688 153.964844 226.515625 153.761719 C 224.027344 153.4375 221.574219 152.90625 219.105469 152.5 C 207.320312 150.453125 195.371094 149.253906 183.40625 149.234375 C 184.878906 149.132812 186.355469 149.152344 187.828125 149.109375 Z M 187.828125 149.109375 " fill-opacity="1" fill-rule="nonzero"/><path fill="#ffffff" d="M 217.246094 155.660156 C 219.113281 156.054688 220.996094 156.734375 222.429688 158.035156 C 223.257812 158.777344 223.871094 159.765625 224.136719 160.847656 C 224.3125 161.558594 224.222656 162.359375 223.78125 162.960938 C 223.25 163.695312 222.398438 164.121094 221.558594 164.394531 C 222.328125 163.804688 223.125 163.136719 223.449219 162.1875 C 223.761719 161.296875 223.46875 160.316406 222.925781 159.585938 C 222.078125 158.425781 220.875 157.589844 219.652344 156.863281 C 218.878906 156.410156 218.074219 156.007812 217.246094 155.660156 Z M 217.246094 155.660156 " fill-opacity="1" fill-rule="nonzero"/><path fill="#ffffff" d="M 253.136719 155.652344 C 253.65625 155.589844 254.179688 155.5625 254.703125 155.621094 C 257.167969 156.117188 259.65625 156.546875 262.050781 157.335938 C 262.75 157.566406 263.453125 157.847656 264.023438 158.328125 C 264.785156 158.929688 265.273438 159.804688 265.585938 160.710938 C 266.140625 162.339844 266.71875 163.960938 267.121094 165.632812 C 267.28125 166.347656 267.464844 167.144531 267.09375 167.828125 C 266.882812 168.265625 266.375 168.484375 265.90625 168.453125 C 261.199219 168.09375 256.480469 167.910156 251.761719 167.832031 C 250.554688 167.78125 249.304688 167.949219 248.140625 167.546875 C 246.832031 167.09375 245.878906 166.011719 245.109375 164.90625 C 243.847656 163.070312 242.722656 161.140625 241.675781 159.175781 C 241.347656 158.511719 241.046875 157.75 241.234375 157 C 241.382812 156.453125 241.96875 156.210938 242.488281 156.175781 C 246.027344 155.824219 249.589844 155.828125 253.136719 155.652344 Z M 253.136719 155.652344 " fill-opacity="1" fill-rule="nonzero"/><path fill="#ffffff" d="M 214.328125 155.777344 C 216.171875 155.628906 217.914062 156.464844 219.457031 157.382812 C 220.441406 157.984375 221.394531 158.691406 222.0625 159.652344 C 222.601562 160.429688 222.882812 161.417969 222.707031 162.359375 C 222.453125 163.207031 221.679688 163.796875 220.855469 164.042969 C 219.804688 164.351562 218.679688 164.308594 217.613281 164.105469 C 215.089844 163.617188 212.914062 161.78125 211.890625 159.4375 C 211.574219 158.734375 211.523438 157.847656 212.03125 157.21875 C 212.609375 156.515625 213.382812 155.859375 214.328125 155.777344 Z M 214.328125 155.777344 " fill-opacity="1" fill-rule="nonzero"/><path fill="#ffffff" d="M 226.355469 155.824219 C 228.179688 155.515625 230.003906 156.230469 231.488281 157.257812 C 232.433594 157.90625 233.273438 158.699219 234.050781 159.542969 C 234.761719 160.273438 235.214844 161.230469 235.464844 162.210938 C 235.640625 163.003906 235.652344 163.917969 235.132812 164.589844 C 234.519531 165.363281 233.464844 165.613281 232.523438 165.589844 C 230.003906 165.351562 227.605469 163.980469 226.117188 161.925781 C 225.574219 161.1875 225.140625 160.375 224.8125 159.519531 C 224.546875 158.734375 224.472656 157.847656 224.804688 157.070312 C 225.074219 156.429688 225.675781 155.949219 226.355469 155.824219 Z M 226.355469 155.824219 " fill-opacity="1" fill-rule="nonzero"/><path fill="#ffffff" d="M 230.585938 156.101562 C 232.195312 156.972656 233.800781 157.890625 235.179688 159.105469 C 235.875 159.738281 236.542969 160.445312 236.910156 161.324219 C 237.195312 161.984375 237.226562 162.773438 236.898438 163.417969 C 236.648438 163.953125 236.207031 164.355469 235.753906 164.710938 C 236.226562 163.847656 236.339844 162.800781 236.027344 161.867188 C 235.546875 160.371094 234.449219 159.179688 233.308594 158.144531 C 232.46875 157.375 231.515625 156.75 230.585938 156.101562 Z M 230.585938 156.101562 " fill-opacity="1" fill-rule="nonzero"/><path fill="#ffffff" d="M 266.058594 159.523438 C 266.105469 159.496094 266.195312 159.449219 266.242188 159.425781 C 266.6875 159.519531 267.03125 159.855469 267.355469 160.164062 C 268.289062 161.15625 268.9375 162.375 269.484375 163.609375 C 269.847656 164.472656 270.25 165.339844 270.378906 166.273438 C 270.421875 166.675781 270.457031 167.152344 270.160156 167.472656 C 269.972656 167.59375 269.769531 167.441406 269.628906 167.320312 C 268.417969 166.125 267.816406 164.484375 267.050781 162.996094 C 266.648438 162.128906 266.210938 161.265625 265.984375 160.335938 C 265.945312 160.070312 265.867188 159.746094 266.058594 159.523438 Z M 266.058594 159.523438 " fill-opacity="1" fill-rule="nonzero"/><path fill="#ffffff" d="M 184.730469 162.472656 C 186.769531 162.109375 188.925781 162.125 190.878906 162.886719 C 192.59375 163.53125 194.074219 164.707031 195.214844 166.128906 C 196.636719 167.902344 197.585938 170.015625 198.21875 172.191406 C 198.898438 174.578125 199.222656 177.066406 199.191406 179.546875 C 199.0625 181.757812 198.769531 183.964844 198.1875 186.105469 C 197.632812 188.113281 196.808594 190.070312 195.550781 191.738281 C 194.441406 193.210938 192.96875 194.421875 191.261719 195.132812 C 189.328125 195.949219 187.167969 196.148438 185.097656 195.875 C 186.902344 195.703125 188.6875 195.117188 190.144531 194.023438 C 191.796875 192.796875 192.988281 191.042969 193.804688 189.171875 C 194.859375 186.738281 195.386719 184.109375 195.695312 181.488281 C 196.023438 178.933594 195.976562 176.339844 195.660156 173.785156 C 195.378906 171.683594 194.867188 169.582031 193.890625 167.683594 C 193.050781 166.054688 191.816406 164.597656 190.222656 163.671875 C 188.582031 162.683594 186.625 162.351562 184.730469 162.472656 Z M 184.730469 162.472656 " fill-opacity="1" fill-rule="nonzero"/><path fill="#ffffff" d="M 116.546875 168.15625 C 117.492188 169.785156 118.507812 171.394531 119.839844 172.738281 C 120.617188 173.507812 121.519531 174.167969 122.542969 174.558594 C 123.621094 174.984375 124.785156 175.09375 125.929688 175.175781 C 139.808594 176.019531 153.691406 176.808594 167.570312 177.621094 C 168.414062 177.699219 169.265625 177.660156 170.101562 177.808594 C 163.523438 177.660156 156.945312 177.597656 150.371094 177.480469 C 141.925781 177.359375 133.480469 177.214844 125.03125 177.09375 C 123.941406 177.046875 122.828125 177.148438 121.75 176.917969 C 120.136719 176.554688 118.878906 175.210938 118.378906 173.664062 C 117.773438 171.824219 117.121094 170.003906 116.546875 168.15625 Z M 116.546875 168.15625 " fill-opacity="1" fill-rule="nonzero"/><path fill="#ffffff" d="M 126.503906 179.671875 C 126.988281 179.613281 127.472656 179.496094 127.96875 179.5 C 137.132812 179.863281 146.300781 180.191406 155.46875 180.464844 C 158.789062 180.546875 162.109375 180.660156 165.429688 180.667969 C 165.800781 180.679688 166.171875 180.710938 166.542969 180.761719 C 165.226562 180.726562 163.910156 180.871094 162.597656 180.890625 C 154.265625 181.230469 145.925781 181.25 137.589844 181.214844 C 131.019531 181.179688 124.449219 181.066406 117.882812 180.910156 C 120.753906 180.472656 123.628906 180.089844 126.503906 179.671875 Z M 126.503906 179.671875 " fill-opacity="1" fill-rule="nonzero"/><g clip-path="url(#6a0a40663e)"><path fill="#ffffff" d="M 203.535156 180.683594 C 203.609375 180.484375 203.832031 180.519531 204.003906 180.519531 C 208.917969 180.753906 213.839844 180.964844 218.765625 180.851562 C 219.535156 182.371094 220.851562 183.621094 222.457031 184.210938 C 223.496094 184.609375 224.621094 184.765625 225.734375 184.71875 C 234.621094 185.28125 243.523438 185.746094 252.433594 185.617188 C 255.605469 185.5 258.773438 185.308594 261.9375 185.015625 C 264.394531 184.773438 266.851562 184.484375 269.269531 183.96875 C 270.308594 183.738281 271.351562 183.484375 272.339844 183.070312 C 272.851562 182.84375 273.390625 182.589844 273.699219 182.101562 C 274.210938 182.753906 274.4375 183.566406 274.667969 184.351562 C 274.882812 185.089844 274.742188 185.9375 274.230469 186.527344 C 273.496094 187.390625 272.410156 187.828125 271.363281 188.183594 C 269.179688 188.875 266.894531 189.175781 264.628906 189.441406 C 258.742188 190.066406 252.816406 190.238281 246.902344 190.441406 C 234.671875 190.839844 222.421875 190.476562 210.230469 189.441406 C 208.265625 189.265625 206.300781 189.085938 204.339844 188.851562 C 204.1875 188.808594 203.9375 188.832031 203.910156 188.625 C 203.917969 185.976562 203.773438 183.324219 203.535156 180.683594 Z M 203.535156 180.683594 " fill-opacity="1" fill-rule="nonzero"/></g><path fill="#ffffff" d="M 194.957031 193.941406 C 198.273438 191.078125 199.972656 186.679688 200.160156 182.363281 C 200.453125 183.554688 200.441406 184.792969 200.519531 186.011719 C 200.558594 187.632812 200.609375 189.257812 200.515625 190.878906 C 200.582031 191.214844 201 191.304688 201.289062 191.371094 C 202.699219 191.582031 204.132812 191.5625 205.554688 191.675781 C 205.152344 192.34375 204.550781 192.859375 204.003906 193.402344 C 203.160156 194.214844 202.28125 194.988281 201.378906 195.734375 C 200.34375 196.578125 198.925781 196.519531 197.671875 196.679688 C 194.976562 196.871094 192.257812 197.074219 189.558594 196.824219 C 191.53125 196.25 193.402344 195.292969 194.957031 193.941406 Z M 194.957031 193.941406 " fill-opacity="1" fill-rule="nonzero"/><g clip-path="url(#8084e11409)"><path fill="#ffffff" d="M 96.617188 184.589844 C 99.113281 184.785156 101.601562 185.105469 104.097656 185.335938 C 115.632812 186.5 127.171875 187.613281 138.722656 188.621094 C 146.449219 189.285156 154.175781 189.921875 161.917969 190.371094 C 163.816406 190.445312 165.714844 190.589844 167.617188 190.605469 C 164.546875 190.648438 161.480469 190.5625 158.410156 190.542969 C 150.640625 190.476562 142.871094 190.414062 135.101562 190.382812 C 134.542969 190.371094 133.988281 190.398438 133.433594 190.359375 C 121.160156 188.445312 108.890625 186.492188 96.617188 184.589844 Z M 96.617188 184.589844 " fill-opacity="1" fill-rule="nonzero"/></g><path fill="#ffffff" d="M 253.566406 192.292969 C 255.972656 192.226562 258.375 192.117188 260.769531 191.914062 C 260.359375 192.667969 259.65625 193.199219 259.015625 193.742188 C 256.03125 196.070312 252.386719 197.640625 248.589844 197.863281 C 246.167969 198 243.71875 197.523438 241.523438 196.484375 C 239.410156 195.496094 237.53125 194.042969 235.917969 192.363281 C 241.800781 192.4375 247.6875 192.449219 253.566406 192.292969 Z M 253.566406 192.292969 " fill-opacity="1" fill-rule="nonzero"/><g fill="#ffffff" fill-opacity="1"><g transform="translate(153.017636, 223.810638)"><g><path d="M 5.226562 -20.90625 C 2.925781 -20.90625 1.046875 -19.023438 1.046875 -16.726562 L 1.046875 0 L 5.226562 0 L 5.226562 -16.726562 L 9.40625 -16.726562 L 9.40625 0 L 13.589844 0 L 13.589844 -16.726562 L 17.769531 -16.726562 L 17.769531 0 L 21.953125 0 L 21.953125 -16.726562 C 21.953125 -19.023438 20.070312 -20.90625 17.769531 -20.90625 Z M 5.226562 -20.90625 "/></g></g></g><g fill="#ffffff" fill-opacity="1"><g transform="translate(176.006899, 223.810638)"><g><path d="M 5.226562 -20.90625 C 2.925781 -20.90625 1.046875 -19.023438 1.046875 -16.726562 L 1.046875 0 L 5.226562 0 L 5.226562 -8.363281 L 17.769531 -8.363281 L 17.769531 0 L 21.953125 0 L 21.953125 -16.726562 C 21.953125 -19.023438 20.070312 -20.90625 17.769531 -20.90625 Z M 5.226562 -16.726562 L 17.769531 -16.726562 L 17.769531 -12.542969 L 5.226562 -12.542969 Z M 5.226562 -16.726562 "/></g></g></g><g fill="#ffffff" fill-opacity="1"><g transform="translate(198.996161, 223.810638)"><g><path d="M 21.953125 -20.90625 L 5.226562 -20.90625 C 2.925781 -20.90625 1.046875 -19.023438 1.046875 -16.726562 L 1.046875 -4.179688 C 1.046875 -1.882812 2.925781 0 5.226562 0 L 21.953125 0 L 21.953125 -4.179688 L 5.226562 -4.179688 L 5.226562 -8.363281 L 21.953125 -8.363281 L 21.953125 -12.542969 L 5.226562 -12.542969 L 5.226562 -16.726562 L 21.953125 -16.726562 Z M 21.953125 -20.90625 "/></g></g></g><g fill="#ffffff" fill-opacity="1"><g transform="translate(131.284145, 237.973808)"><g><path d="M 4.234375 -9.265625 C 5.421875 -9.265625 6.492188 -8.945312 7.453125 -8.3125 L 6.8125 -6.953125 C 5.875 -7.523438 4.972656 -7.8125 4.109375 -7.8125 C 3.648438 -7.8125 3.285156 -7.726562 3.015625 -7.5625 C 2.742188 -7.394531 2.609375 -7.15625 2.609375 -6.84375 C 2.609375 -6.539062 2.726562 -6.28125 2.96875 -6.0625 C 3.21875 -5.851562 3.523438 -5.695312 3.890625 -5.59375 C 4.265625 -5.488281 4.664062 -5.359375 5.09375 -5.203125 C 5.53125 -5.054688 5.929688 -4.894531 6.296875 -4.71875 C 6.660156 -4.550781 6.960938 -4.285156 7.203125 -3.921875 C 7.441406 -3.554688 7.5625 -3.117188 7.5625 -2.609375 C 7.5625 -1.796875 7.238281 -1.148438 6.59375 -0.671875 C 5.957031 -0.191406 5.125 0.046875 4.09375 0.046875 C 3.394531 0.046875 2.71875 -0.0820312 2.0625 -0.34375 C 1.40625 -0.601562 0.832031 -0.957031 0.34375 -1.40625 L 1.015625 -2.75 C 1.472656 -2.320312 1.976562 -1.988281 2.53125 -1.75 C 3.09375 -1.519531 3.625 -1.40625 4.125 -1.40625 C 4.664062 -1.40625 5.085938 -1.503906 5.390625 -1.703125 C 5.691406 -1.898438 5.84375 -2.171875 5.84375 -2.515625 C 5.84375 -2.835938 5.71875 -3.101562 5.46875 -3.3125 C 5.226562 -3.53125 4.925781 -3.6875 4.5625 -3.78125 C 4.195312 -3.882812 3.796875 -4.007812 3.359375 -4.15625 C 2.929688 -4.300781 2.53125 -4.453125 2.15625 -4.609375 C 1.789062 -4.773438 1.484375 -5.035156 1.234375 -5.390625 C 0.992188 -5.753906 0.875 -6.191406 0.875 -6.703125 C 0.875 -7.484375 1.179688 -8.101562 1.796875 -8.5625 C 2.410156 -9.03125 3.222656 -9.265625 4.234375 -9.265625 Z M 4.234375 -9.265625 "/></g></g></g><g fill="#ffffff" fill-opacity="1"><g transform="translate(145.442316, 237.973808)"><g><path d="M 7.15625 -2.078125 L 2.515625 -2.078125 L 1.625 0 L 0.015625 0 L 4.078125 -9.203125 L 5.65625 -9.203125 L 9.6875 0 L 8.03125 0 Z M 6.5625 -3.453125 L 4.828125 -7.546875 L 3.09375 -3.453125 Z M 6.5625 -3.453125 "/></g></g></g><g fill="#ffffff" fill-opacity="1"><g transform="translate(161.123618, 237.973808)"><g/></g></g><g fill="#ffffff" fill-opacity="1"><g transform="translate(170.502295, 237.973808)"><g><path d="M 1.203125 -9.203125 L 4.984375 -9.203125 C 6.359375 -9.203125 7.492188 -8.765625 8.390625 -7.890625 C 9.285156 -7.023438 9.734375 -5.925781 9.734375 -4.59375 C 9.734375 -3.269531 9.28125 -2.171875 8.375 -1.296875 C 7.476562 -0.429688 6.332031 0 4.9375 0 L 1.203125 0 Z M 2.765625 -7.8125 L 2.765625 -1.390625 L 5.015625 -1.390625 C 5.921875 -1.390625 6.671875 -1.6875 7.265625 -2.28125 C 7.867188 -2.882812 8.171875 -3.648438 8.171875 -4.578125 C 8.171875 -5.515625 7.863281 -6.285156 7.25 -6.890625 C 6.632812 -7.503906 5.867188 -7.8125 4.953125 -7.8125 Z M 2.765625 -7.8125 "/></g></g></g><g fill="#ffffff" fill-opacity="1"><g transform="translate(186.669429, 237.973808)"><g><path d="M 7.78125 -7.8125 L 2.765625 -7.8125 L 2.765625 -5.328125 L 7.25 -5.328125 L 7.25 -3.921875 L 2.765625 -3.921875 L 2.765625 -1.390625 L 7.9375 -1.390625 L 7.9375 0 L 1.203125 0 L 1.203125 -9.203125 L 7.78125 -9.203125 Z M 7.78125 -7.8125 "/></g></g></g><g fill="#ffffff" fill-opacity="1"><g transform="translate(201.274037, 237.973808)"><g/></g></g><g fill="#ffffff" fill-opacity="1"><g transform="translate(210.652718, 237.973808)"><g><path d="M 5.28125 -9.234375 C 5.925781 -9.234375 6.554688 -9.109375 7.171875 -8.859375 C 7.796875 -8.609375 8.332031 -8.257812 8.78125 -7.8125 L 7.875 -6.6875 C 7.539062 -7.050781 7.144531 -7.335938 6.6875 -7.546875 C 6.226562 -7.753906 5.769531 -7.859375 5.3125 -7.859375 C 4.382812 -7.859375 3.601562 -7.546875 2.96875 -6.921875 C 2.34375 -6.296875 2.03125 -5.53125 2.03125 -4.625 C 2.03125 -3.71875 2.34375 -2.945312 2.96875 -2.3125 C 3.601562 -1.6875 4.382812 -1.375 5.3125 -1.375 C 6.257812 -1.375 7.113281 -1.738281 7.875 -2.46875 L 8.796875 -1.453125 C 8.316406 -0.984375 7.757812 -0.613281 7.125 -0.34375 C 6.5 -0.0703125 5.867188 0.0625 5.234375 0.0625 C 3.878906 0.0625 2.742188 -0.382812 1.828125 -1.28125 C 0.910156 -2.175781 0.453125 -3.285156 0.453125 -4.609375 C 0.453125 -5.921875 0.914062 -7.019531 1.84375 -7.90625 C 2.78125 -8.789062 3.925781 -9.234375 5.28125 -9.234375 Z M 5.28125 -9.234375 "/></g></g></g><g fill="#ffffff" fill-opacity="1"><g transform="translate(225.795674, 237.973808)"><g><path d="M 0.84375 -1.359375 C 1 -1.523438 1.191406 -1.609375 1.421875 -1.609375 C 1.660156 -1.609375 1.859375 -1.523438 2.015625 -1.359375 C 2.179688 -1.203125 2.265625 -1.003906 2.265625 -0.765625 C 2.265625 -0.503906 2.179688 -0.289062 2.015625 -0.125 C 1.859375 0.0390625 1.660156 0.125 1.421875 0.125 C 1.191406 0.125 1 0.0390625 0.84375 -0.125 C 0.6875 -0.289062 0.609375 -0.503906 0.609375 -0.765625 C 0.609375 -1.003906 0.6875 -1.203125 0.84375 -1.359375 Z M 0.84375 -1.359375 "/></g></g></g><g fill="#ffffff" fill-opacity="1"><g transform="translate(234.649141, 237.973808)"><g><path d="M 5.3125 0 L 3.703125 0 L 0.046875 -9.203125 L 1.703125 -9.203125 L 4.546875 -1.71875 L 7.40625 -9.203125 L 9.03125 -9.203125 Z M 5.3125 0 "/></g></g></g><g clip-path="url(#f7e5858a4e)"><path fill="#43c2f3" d="M 138.191406 208.972656 C 143.28125 208.972656 147.402344 213.058594 147.402344 218.101562 C 147.402344 223.144531 143.28125 227.230469 138.191406 227.230469 C 133.105469 227.230469 128.980469 223.144531 128.980469 218.101562 C 128.980469 213.058594 133.105469 208.972656 138.191406 208.972656 " fill-opacity="1" fill-rule="nonzero"/></g><g clip-path="url(#541485495e)"><path fill="#43c2f3" d="M 128.980469 197.917969 C 132.058594 197.917969 134.558594 200.390625 134.558594 203.445312 C 134.558594 206.496094 132.058594 208.972656 128.980469 208.972656 C 125.902344 208.972656 123.402344 206.496094 123.402344 203.445312 C 123.402344 200.390625 125.902344 197.917969 128.980469 197.917969 " fill-opacity="1" fill-rule="nonzero"/></g><g clip-path="url(#1f119f0827)"><path fill="#43c2f3" d="M 139.035156 187.519531 C 140.167969 187.519531 141.085938 188.429688 141.085938 189.550781 C 141.085938 190.675781 140.167969 191.585938 139.035156 191.585938 C 137.902344 191.585938 136.984375 190.675781 136.984375 189.550781 C 136.984375 188.429688 137.902344 187.519531 139.035156 187.519531 " fill-opacity="1" fill-rule="nonzero"/></g><g clip-path="url(#6aec6a3c0c)"><path fill="#43c2f3" d="M 144.523438 191.777344 C 146.113281 191.777344 147.402344 193.058594 147.402344 194.632812 C 147.402344 196.210938 146.113281 197.488281 144.523438 197.488281 C 142.929688 197.488281 141.640625 196.210938 141.640625 194.632812 C 141.640625 193.058594 142.929688 191.777344 144.523438 191.777344 " fill-opacity="1" fill-rule="nonzero"/></g><path fill="#ffffff" d="M 139.78125 209.84375 C 141.707031 209.84375 143.269531 211.390625 143.269531 213.296875 C 143.269531 215.207031 141.707031 216.753906 139.78125 216.753906 C 137.855469 216.753906 136.296875 215.207031 136.296875 213.296875 C 136.296875 211.390625 137.855469 209.84375 139.78125 209.84375 " fill-opacity="1" fill-rule="nonzero"/><path fill="#ffffff" d="M 130.511719 199.015625 C 131.617188 199.015625 132.515625 199.90625 132.515625 201.003906 C 132.515625 202.101562 131.617188 202.992188 130.511719 202.992188 C 129.402344 202.992188 128.503906 202.101562 128.503906 201.003906 C 128.503906 199.90625 129.402344 199.015625 130.511719 199.015625 " fill-opacity="1" fill-rule="nonzero"/><g clip-path="url(#c9e3d8b65f)"><path fill="#ffffff" d="M 147.03125 216.59375 C 147.03125 221.078125 143.507812 224.710938 139.15625 224.710938 C 134.808594 224.710938 131.285156 221.078125 131.285156 216.59375 C 131.285156 212.109375 139.15625 202.207031 139.15625 202.207031 C 139.15625 202.207031 147.03125 212.109375 147.03125 216.59375 " fill-opacity="1" fill-rule="nonzero"/></g><g clip-path="url(#24386d9860)"><path fill="#ffffff" d="M 147.550781 174.460938 C 147.550781 169.921875 143.839844 166.210938 139.300781 166.210938 C 143.839844 166.210938 147.550781 162.5 147.550781 157.960938 C 147.550781 162.5 151.261719 166.210938 155.800781 166.210938 C 151.261719 166.210938 147.550781 169.921875 147.550781 174.460938 Z M 147.550781 174.460938 " fill-opacity="1" fill-rule="nonzero"/></g></svg>